<?xml version="1.0" encoding="UTF-8" standalone="no"?>
<!-- Created with Inkscape (http://www.inkscape.org/) -->

<svg
   width="512"
   height="512"
   viewBox="0 0 512 512"
   version="1.1"
   id="svg1"
   xml:space="preserve"
   inkscape:export-filename="logo.png"
   inkscape:export-xdpi="96"
   inkscape:export-ydpi="96"
   inkscape:version="1.4.2 (ebf0e940d0, 2025-05-08)"
   sodipodi:docname="ffcutter.svg"
   xmlns:inkscape="http://www.inkscape.org/namespaces/inkscape"
   xmlns:sodipodi="http://sodipodi.sourceforge.net/DTD/sodipodi-0.dtd"
   xmlns="http://www.w3.org/2000/svg"
   xmlns:svg="http://www.w3.org/2000/svg"><sodipodi:namedview
     id="namedview1"
     pagecolor="#505050"
     bordercolor="#eeeeee"
     borderopacity="1"
     inkscape:showpageshadow="0"
     inkscape:pageopacity="0"
     inkscape:pagecheckerboard="0"
     inkscape:deskcolor="#505050"
     inkscape:document-units="px"
     inkscape:zoom="1.0965679"
     inkscape:cx="227.52808"
     inkscape:cy="318.26573"
     inkscape:window-width="1920"
     inkscape:window-height="1005"
     inkscape:window-x="0"
     inkscape:window-y="0"
     inkscape:window-maximized="1"
     inkscape:current-layer="svg1" /><defs
     id="defs1"><linearGradient
       id="swatch6"
       inkscape:swatch="solid"><stop
         style="stop-color:#999900;stop-opacity:1;"
         offset="0"
         id="stop6" /></linearGradient></defs><g
     inkscape:label="Layer 1"
     inkscape:groupmode="layer"
     id="layer1" /><circle
     style="fill:#111111;stroke-width:1.15286;fill-opacity:1"
     id="path2"
     cx="256"
     cy="256"
     r="256" /><path
     d="m 319.46413,138.95896 c -1.34122,-0.0609 -2.68245,0 -4.02364,0.24385 -4.08463,0.85349 -7.68156,3.23111 -9.93725,6.64514 l -37.43223,55.53876 h 37.67609 l 25.60513,-38.10288 c 2.31665,-3.41402 3.17016,-7.62058 2.37763,-11.70519 -0.79256,-4.08464 -3.17016,-7.68156 -6.58418,-9.99821 -2.25571,-1.52413 -4.93814,-2.37762 -7.68155,-2.62147 z M 177.96531,154.5659 c -25.72706,0 -46.8208,21.09374 -46.8208,46.82081 0,25.72706 21.09374,46.8208 46.8208,46.8208 h 58.58696 l -24.7516,36.76165 -10.1811,15.11923 -0.97544,1.52411 c -0.061,0.061 -0.12192,0.12193 -0.12192,0.18289 -4.38947,7.13286 -6.94997,15.485 -6.94997,24.44681 0,25.72707 21.09373,46.82081 46.82082,46.82081 25.72707,0 46.8208,-21.09374 46.8208,-46.82081 0,-21.64243 -14.99728,-40.05374 -35.11559,-45.29671 l 22.13013,-32.73798 h 91.02015 c 8.59601,0 15.60693,-7.01093 15.60693,-15.60694 0,-8.596 -7.01092,-15.60693 -15.60693,-15.60693 H 222.10367 c 1.707,-4.87717 2.68243,-10.12014 2.68243,-15.60693 0,-25.72707 -21.09374,-46.82081 -46.82079,-46.82081 z m 0,23.4104 c 0.79253,0 1.58507,0.061 2.37762,0.12192 0.67061,0.061 1.28026,0.1829 1.88991,0.30483 0.73157,0.12192 1.46317,0.24386 2.13375,0.48773 7.86441,2.13374 13.96091,8.23021 16.09466,16.09463 0.24385,0.67061 0.36579,1.4022 0.4877,2.13376 0.12194,0.60966 0.24387,1.2193 0.30484,1.88991 v 0.0609 c 0.061,0.7316 0.12194,1.52413 0.12194,2.31668 0,2.07278 -0.24387,4.02365 -0.79258,5.97451 v 0.18291 c -0.54867,1.95085 -1.34119,3.84077 -2.31666,5.54778 -0.85349,1.40219 -1.76796,2.68243 -2.80436,3.90173 h -0.1829 c -4.4504,4.93812 -10.72975,7.7425 -17.31394,7.80346 -2.13376,0 -4.14558,-0.30482 -6.09646,-0.79253 -8.10828,-2.13377 -14.38763,-8.41312 -16.5214,-16.58237 -0.4877,-1.88991 -0.79252,-3.90174 -0.79252,-6.03549 0,-2.13377 0.30481,-4.1456 0.79252,-6.03551 2.1338,-8.16924 8.41315,-14.4486 16.5214,-16.58237 1.95088,-0.48771 3.9627,-0.79253 6.09646,-0.79253 z m 62.42775,124.85549 c 0.79253,0 1.58506,0.061 2.37763,0.12192 0.67059,0.061 1.28024,0.1829 1.88989,0.30485 0.73156,0.12192 1.46315,0.24385 2.13376,0.4877 7.86443,2.13374 13.9609,8.23023 16.09466,16.09466 0.24383,0.6706 0.36579,1.40219 0.48771,2.13375 0.12193,0.60965 0.24385,1.21931 0.30484,1.8899 v 0.061 c 0.0609,0.73159 0.12193,1.52413 0.12193,2.31666 0,2.13376 -0.30484,4.1456 -0.79257,6.03549 -2.13375,8.16926 -8.41312,14.44862 -16.5214,16.58238 -1.95088,0.48772 -3.96268,0.79254 -6.09644,0.79254 -2.13379,0 -4.14561,-0.30482 -6.09646,-0.79254 -8.10829,-2.1338 -14.38765,-8.41315 -16.52141,-16.5824 -0.48773,-1.88991 -0.79254,-3.90174 -0.79254,-6.03549 0,-0.30483 0,-0.60965 0.0609,-0.85352 0,-0.061 0.061,-0.061 0.061,-0.061 0.54869,-11.21748 8.90084,-20.42315 19.99638,-22.06918 l 0.1829,-0.24386 c 0.97543,-0.1219 2.01185,-0.18286 3.1092,-0.18286 z m 0,0"
     fill="#999999"
     id="path1"
     style="opacity:0.71983164;fill:#008300;fill-opacity:1;stroke:none;stroke-width:15.607;stroke-opacity:1" /></svg>
